<svg data-v-423bf9ae="" xmlns="http://www.w3.org/2000/svg" viewBox="0 0 350 90" class="iconLeft"><!----><!----><!----><g data-v-423bf9ae="" id="b2967f1d-9b64-4420-b7e6-fb1b6b095f49" fill="#EFE5B0" transform="matrix(5.655042595806296,0,0,5.655042595806296,107.2290323355994,14.773796890623792)"><path d="M3.19 1.29L6.05 1.29L6.64 2.91L7.22 2.80L7.22 0.70L0.59 0.70L0.49 1.29L1.71 1.75L1.71 9.45L0.50 9.91L0.62 10.50L4.31 10.50L4.41 9.91L3.19 9.45L3.19 5.60L5.01 5.60L5.47 6.78L6.05 6.68L6.05 3.92L5.47 3.82L5.01 5.00L3.19 5.00ZM8.97 0.70L8.97 9.38C8.97 10.36 9.66 10.65 10.18 10.65C10.56 10.65 10.92 10.60 11.12 10.50L11.12 10.00C10.68 10.00 10.29 9.79 10.29 9.35L10.29 0.70C10.29 0.70 10.30 0.04 9.53 0.04C9.07 0.04 8.46 0.14 8.13 0.20L8.13 0.70ZM15.53 3.81C13.45 3.81 12.24 5.12 12.24 7.22C12.24 9.32 13.31 10.65 15.53 10.65C17.75 10.65 18.82 9.38 18.82 7.22C18.82 5.07 17.60 3.81 15.53 3.81ZM15.53 4.33C16.70 4.33 17.46 5.39 17.46 7.18C17.46 8.96 16.72 10.14 15.53 10.14C14.34 10.14 13.59 8.95 13.59 7.18C13.59 5.42 14.36 4.33 15.53 4.33ZM24.54 9.53C24.89 10.26 25.61 10.65 26.64 10.65C28.17 10.65 29.60 10.18 29.60 7.24C29.60 6.30 29.05 3.81 27.61 3.81C27.17 3.81 26.84 4.16 26.84 4.59C26.84 5.03 27.17 5.36 27.61 5.36L27.99 4.80C28.66 5.18 28.94 6.47 28.94 7.43C28.94 9.45 27.82 10.12 27.12 10.12C26.42 10.12 25.59 9.69 25.59 8.41L25.59 4.47C25.59 4.47 25.61 3.81 24.84 3.81C24.37 3.81 23.81 3.91 23.49 3.96L23.49 4.47L24.28 4.47L24.28 7.97C24.28 9.56 23.62 10.12 22.99 10.12C22.15 10.12 21.62 9.49 21.62 8.43L21.62 4.47C21.62 4.47 21.63 3.81 20.86 3.81C20.40 3.81 19.84 3.91 19.52 3.96L19.52 4.47L20.30 4.47L20.30 8.15C20.30 9.83 21.17 10.65 22.69 10.65C23.41 10.65 24.15 10.32 24.54 9.53ZM36.72 5.78C36.72 4.34 35.63 3.81 34.01 3.81C32.05 3.81 30.65 5.07 30.65 7.22C30.65 9.30 31.81 10.65 34.29 10.65C35.20 10.65 36.09 10.37 36.69 9.83L36.37 9.37C35.80 9.73 35.11 10.00 34.37 10.00C33.10 10.00 32.38 9.14 32.19 7.87C34.55 7.87 36.72 7.49 36.72 5.78ZM32.13 7.11C32.13 5.52 32.75 4.33 33.95 4.33C34.92 4.33 35.41 4.73 35.41 5.61C35.41 6.65 33.96 7.36 32.13 7.38ZM38.49 4.47L38.49 10.50L39.80 10.50L39.80 7.39C39.80 5.42 40.92 4.47 41.59 4.47L41.99 5.36C42.43 5.36 42.78 5.04 42.78 4.62C42.78 4.20 42.52 3.81 41.79 3.81C41.06 3.81 40.17 4.42 39.80 5.43L39.80 4.66C39.80 4.66 39.82 3.81 39.05 3.81C38.58 3.81 38.02 3.91 37.70 3.96L37.70 4.47Z"></path></g><!----><g data-v-423bf9ae="" id="15791c04-f0ef-41aa-bb24-76368e7a9d61" transform="matrix(2.8125,0,0,2.8125,0,0)" stroke="none" fill="#EFE5B0"><circle cx="16" cy="16.021" r="8.066"></circle><path d="M32 0H0v32h32V0zM16 26.086c-5.551 0-10.066-4.516-10.066-10.065 0-5.55 4.516-10.066 10.066-10.066 5.55 0 10.065 4.516 10.065 10.066.001 5.55-4.515 10.065-10.065 10.065z"></path></g><!----></svg>